<svg version="1.1" id="svg12364" width="2167.293" height="2164.001" viewBox="0 0 2167.293 2164.0009" xml:space="preserve" xmlns="http://www.w3.org/2000/svg" xmlns:svg="http://www.w3.org/2000/svg"><defs id="defs12368"/><g id="g12370" transform="translate(-279.82312,-282.8064)"><ellipse style="display:inline;opacity:1;fill:#f86b05;fill-opacity:1;stroke-width:1.00419" id="path14024" cy="1364.8069" cx="1363.4696" rx="1083.6465" ry="1082.0005"/><path style="display:inline;fill:#fefefe;stroke-width:1.33333" d="m 1327.3333,2009.7619 c -20.1908,-0.4183 -63.0877,-2.7405 -84,-4.5473 -52.6019,-4.5448 -105.4741,-10.6142 -125.5388,-14.4108 -7.9536,-1.5051 -23.1612,-4.2939 -33.7945,-6.1974 -67.7332,-12.1253 -150.68,-32.7228 -207.33332,-51.4853 -74.91883,-24.8117 -82.39079,-73.7236 -33.9836,-222.4585 11.26316,-34.6071 43.05448,-84.1448 66.77269,-104.0464 24.79465,-20.8048 81.96794,-53.2384 93.91773,-53.2783 0.7554,0 9.1554,-3.0612 18.6667,-6.7971 9.5112,-3.7358 25.3931,-9.6865 35.2931,-13.2236 24.0261,-8.584 72.5462,-28.0642 101.3334,-40.6841 28.4801,-12.4853 29.4332,-12.7141 32.6305,-7.8344 1.3335,2.0352 4.2561,5.238 6.4946,7.1175 2.2385,1.8794 5.9011,5.4316 8.1391,7.8937 11.5193,12.6727 63.7891,41.0093 91.5613,49.6376 77.3657,24.0356 181.488,-1.0613 236.7609,-57.0673 12.0393,-12.1991 14.3185,-12.4824 16.4685,-2.0468 3.7292,18.1016 8.1548,27.5912 24.7174,53 26.8508,41.1922 30.6781,69.1301 14.2034,103.6804 -1.289,2.7032 13.2994,-8.4868 20.3576,-15.6154 10.464,-10.5684 19.4394,-27.919 22.6652,-43.8158 1.4302,-7.0471 7.4806,-4.4858 10.4348,4.4174 6.918,20.8483 4.8851,48.4155 -5.0054,67.8767 -4.8999,9.6415 -4.4544,10.2325 4.091,5.4279 41.4286,-23.293 60.8894,-57.7539 58.5266,-103.6379 -0.9768,-18.9681 0.5102,-19.9896 17.9545,-12.3333 5.0125,2.2 9.6596,4 10.3269,4 3.92,0 44.7224,19.5621 57.9819,27.7985 64.9089,40.3199 95.2972,91.2003 123.5519,206.8681 20.6858,84.6834 3.527,124.7782 -63.194,147.6642 -32.0674,10.9994 -90.0863,26.9397 -112.8435,31.0028 -4.1305,0.7374 -9.8305,2.1537 -12.6667,3.1473 -2.8361,0.9935 -8.1565,2.2244 -11.8232,2.7353 -3.6666,0.511 -11.4666,2.0702 -17.3333,3.4651 -9.2157,2.1911 -27.9484,5.7815 -55.3333,10.6052 -4.0334,0.7104 -13.6334,2.4908 -21.3334,3.9564 -7.7,1.4656 -20.6,3.3496 -28.6666,4.1868 -8.0667,0.8371 -15.076,1.7681 -15.5763,2.0689 -0.5004,0.301 -6.8004,1.1275 -14,1.8368 -7.1997,0.7095 -18.1904,1.8794 -24.4237,2.5998 -30.6364,3.5408 -80.6979,6.9758 -117.9479,8.0933 -39.0073,1.1701 -48.7383,1.2144 -88.0522,0.4 z m 9.3334,-511.726 c -37.3674,-5.1081 -68.8514,-19.5991 -102.3096,-47.0891 -11.0493,-9.0784 -47.6904,-47.1738 -47.6904,-49.5834 0,-0.798 -5.3555,-9.3814 -11.901,-19.0739 -16.1865,-23.9686 -33.6547,-59.7612 -42.1127,-86.2895 -1.9889,-6.238 -4.2624,-9.2252 -15.2213,-20 -14.2277,-13.9886 -21.9674,-24.2495 -31.232,-41.4054 -28.0821,-52.0021 -20.1269,-135.5584 13.1692,-138.3196 12.7266,-1.0554 17.4504,5.9907 26.042,38.8452 1.3118,5.0161 2.6633,9.3984 3.0033,9.7385 0.3401,0.34 1.0225,-6.1641 1.5165,-14.4536 4.9105,-82.3941 5.8254,-87.6122 17.9546,-102.4051 10.5456,-12.8616 10.4657,-12.5646 11.1195,-41.33332 0.9297,-40.91162 10.4695,-58.83895 42.9184,-80.65347 12.9829,-8.72801 15.0126,-8.92212 28.143,-2.69119 20.6206,9.7853 44.5444,15.2494 67.0705,15.31863 17.1585,0.0528 45.5197,12.68159 66.2812,29.51416 10.1803,8.25367 11.0687,9.26992 23.1763,26.51187 11.3648,16.18423 8.8117,-18.84268 -3.0847,-42.31898 -15.1424,-29.88221 40.0819,-2.50086 62.2221,30.85105 6.2839,9.46586 6.7642,-14.84166 0.7758,-39.25951 -4.864,-19.8334 0.1106,-21.84096 15.4252,-6.22516 16.294,16.61418 30.0117,25.86592 47.0374,31.72364 3.8666,1.33026 7.03,2.22366 7.03,1.98534 0,-0.23832 -2.0177,-3.78401 -4.4837,-7.87932 -26.2892,-43.65752 1.4568,-57.27301 39.3268,-19.2984 18.5328,18.58407 22.1215,28.80931 23.2859,66.3473 0.7634,24.61266 0.9786,25.53696 7.7304,33.19196 10.3205,11.7013 14.5777,24.9057 16.7364,51.9112 2.4538,30.6972 4.0692,55.8857 4.1793,65.1686 0.1133,9.6012 1.0161,7.2727 10.8575,-28.0203 9.245,-33.1551 42.9848,-13.7597 47.77,27.4608 6.2521,53.8547 -14.2123,107.3021 -54.8583,143.2754 -3.9667,3.5105 -5.7587,7.0592 -10.4344,20.6624 -8.1032,23.5744 -21.6047,50.6213 -37.2135,74.5479 -7.4597,11.4348 -13.563,21.4413 -13.563,22.2366 0,0.7955 -1.737,2.8398 -3.8598,4.5428 -2.1228,1.7032 -8.0698,8.1967 -13.2157,14.43 -49.1149,59.495 -118.9997,87.9594 -191.5912,78.0359 z m -37.3334,-136.7519 c 22.5047,-2.5521 42.1044,-10.7005 55.2039,-22.9507 8.0936,-7.5688 11.8923,-7.0335 26.0931,3.677 36.1963,27.3 97.0448,26.7163 123.0481,-1.1804 10.9643,-11.7624 23.6148,-36.1235 14.1467,-27.2418 -6.5841,6.1762 -14.6995,9.0176 -25.8251,9.0419 -15.6734,0.034 -17.8192,-0.8729 -44.3066,-18.7309 -36.568,-24.6543 -50.173,-26.8868 -71.7243,-11.7693 -9.2951,6.52 -13.3064,6.4563 -21.771,-0.346 -18.1353,-14.574 -33.2871,-12.1492 -67.589,10.8165 -36.1645,24.2128 -55.6739,27.1238 -73.7501,11.0041 -2.4457,-2.181 -2.5073,-2.1388 -1.552,1.0623 6.8611,22.9905 33.3825,43.4581 60.3887,46.6044 12.9829,1.5125 14.4078,1.5132 27.6376,0.013 z" id="path13008"/><path style="display:inline;fill:#030303;stroke-width:1.33333" d="m 1628.8587,1674.8694 c -0.4243,-0.6864 1.3803,-5.963 4.0103,-11.7255 9.5518,-20.9291 10.1177,-22.9773 10.8138,-39.1439 0.6576,-15.2742 -1.5666,-29.8981 -5.2197,-34.3186 -1.8799,-2.2748 -3.7297,-0.8236 -3.7297,2.9258 0,14.1962 -18.846,42.0391 -36.4023,53.7806 -15.8121,10.5749 -17.784,10.3429 -11.9173,-1.4027 16.773,-33.5816 13.5014,-57.442 -13.5723,-98.9851 -21.02,-32.2542 -23.4647,-39.0237 -28.0263,-77.6112 -5.8282,-49.3022 -3.3018,-69.6041 11.4812,-92.2649 15.4482,-23.6801 29.0383,-50.8367 37.0547,-74.0449 5.4995,-15.9211 5.4995,-15.9211 19.1993,-29.3334 13.0219,-12.7485 25.8327,-31.0265 32.5298,-46.4122 3.1728,-7.2892 3.6942,-3.1262 3.6738,29.3333 -0.023,35.2644 0.5302,39.67 8.2256,65.6185 6.6099,22.288 13.1112,32.8275 44.444,72.0482 23.101,28.9165 34.6431,55.8314 34.6431,80.784 0,9.4233 -1.7751,9.1152 -6.4361,-1.1174 -9.1542,-20.0953 -23.5903,-36.7832 -39.5328,-45.6988 -16.2868,-9.1081 -15.4411,-3.6784 3.9838,25.5756 34.8922,52.5478 47.6782,110.4 21.8991,99.0855 -13.0701,-5.7365 -13.0315,-5.7753 -12.252,12.2635 2.0548,47.5485 -18.238,81.834 -62.5469,105.676 -6.3535,3.4188 -11.8988,5.6541 -12.3231,4.9676 z M 1004.5082,1553.894 c -0.977,-2.546 0.4631,-23.0026 2.3644,-33.5848 3.8336,-21.3374 10.4476,-36.2118 26.9268,-60.5562 18.2046,-26.8935 24.2959,-38.4196 20.3037,-38.4196 -11.357,0 -38.3551,26.0992 -49.3084,47.6666 -5.76999,11.3612 -8.72802,12.585 -8.72802,3.6104 0,-24.1478 11.89362,-50.8936 35.89132,-80.7106 24.9031,-30.9419 27.8787,-35.0254 33.931,-46.5639 15.2028,-28.9836 20.6038,-65.456 16.339,-110.3359 -1.4764,-15.537 -0.2431,-15.7528 7.625,-1.3333 8.5409,15.6524 20.3369,30.9059 31.958,41.3255 7.6339,6.8445 10.5771,10.5066 12.3234,15.3333 13.5418,37.4293 26.9504,64.9977 43.6068,89.6571 13.4447,19.9042 17.8225,90.831 6.4521,104.5316 -2.8294,3.409 -84.8727,37.4245 -124.1266,51.4633 -9.9,3.5405 -25.7819,9.4941 -35.2932,13.23 -19.4457,7.638 -19.1582,7.5716 -20.2653,4.6865 z m 263.7893,-189.9934 c -23.7249,-3.0787 -46.4107,-18.7047 -55.9918,-38.5672 -7.605,-15.7662 -6.9145,-25.2942 1.1952,-16.4914 16.1667,17.5482 34.4411,15.2392 70.5082,-8.9082 34.8015,-23.3003 54.2589,-26.1686 72.9582,-10.7551 6.4532,5.3193 9.5967,5.2297 17.5733,-0.5008 21.1714,-15.2101 39.1054,-12.2432 75.8861,12.5545 25.6375,17.285 28.9068,18.7568 41.64,18.7472 9.0044,-0.013 18.7555,-4.3106 25.2616,-11.1496 5.8853,-6.1864 6.7384,-6.0757 6.7384,0.8743 0,15.5452 -18.1369,39.0473 -36.9672,47.9025 -29.9493,14.084 -81.3277,7.9932 -109.0692,-12.9298 -13.5336,-10.2074 -13.6722,-10.2295 -21.0998,-3.3831 -19.8204,18.2699 -54.2939,27.0627 -88.633,22.6067 z m -142.6523,-216.8334 c -1.4768,-4.9869 -4.538,-15.3131 -6.8027,-22.9469 -5.6676,-19.1044 -11.789,-26.651 -20.2458,-24.9596 -4.3012,0.8602 -5.6555,-0.7986 -6.935,-8.494 -0.4267,-2.5667 -2.2986,-11.7245 -4.1599,-20.3507 -15.3328,-71.06377 -16.3114,-139.20945 -2.5153,-175.16143 1.5379,-4.00777 -3.8783,-3.33834 -10.9433,1.35256 -10.6676,7.08286 -11.8704,6.69299 -10.8199,-3.50712 3.2679,-31.72941 26.715,-69.7777 50.3949,-81.77721 11.5468,-5.85124 5.5521,-11.79957 -13.6438,-13.53807 -23.7485,-2.1508 3.8755,-21.68472 30.6655,-21.68472 9.4052,0 10.7601,-1.46844 10.7601,-11.66122 0,-14.85037 8.6684,-37.30597 19.5607,-50.67211 6.833,-8.38491 8.0862,-7.60836 7.5309,4.66666 -1.0332,22.8413 5.5001,29.68508 14.7251,15.42488 19.4082,-30.0017 46.6156,-51.77046 76.8911,-61.52098 24.8461,-8.00195 25.6415,-7.54536 16.6847,9.5778 -9.1259,17.44641 -7.54,21.0198 5.7104,12.86676 47.7987,-29.41086 152.9661,-47.21943 127.9663,-21.66926 -19.4573,19.88563 -19.0274,24.5148 1.6959,18.2669 22.9681,-6.9247 57.5752,-9.18851 80.7269,-5.28074 19.3042,3.25832 47.1747,13.36471 47.1747,17.10642 0,1.06236 -3.1237,3.19469 -7,4.77828 -10.986,4.48818 -19.6667,10.41473 -19.6667,13.42698 0,3.12358 0.3607,3.21666 23.2411,5.99747 35.6547,4.33337 62.0107,17.45055 86.6044,43.10247 7.5701,7.89595 6.2567,9.58527 -7.4703,9.60789 -20.7677,0.0343 -21.8372,2.43438 -6.2166,13.95051 31.6702,23.34853 53.514,58.5738 58.741,94.72544 2.0884,14.44428 0.873,15.42305 -9.9946,8.04816 -11.5262,-7.82185 -13.801,-5.78895 -9.3182,8.32724 10.1622,32.00109 9.8647,84.46983 -0.8104,142.93044 -1.406,7.7 -3.8712,21.5 -5.478,30.6667 -3.5912,20.4859 -3.591,20.4858 -10.6994,21.4575 -6.8024,0.9298 -13.4279,7.5173 -15.6812,15.5914 -7.4047,26.5323 -10.9986,38.2319 -12.0746,39.3079 -2.7592,2.7592 -4.1765,-0.828 -4.1765,-10.5712 0,-9.9085 -1.4107,-32.8099 -4.0709,-66.0898 -2.1587,-27.0055 -6.4159,-40.21 -16.7364,-51.9112 -7.044,-7.9864 -7.3315,-9.2082 -7.8886,-33.52301 -0.8433,-36.81562 -4.5453,-47.38242 -23.1277,-66.01628 -36.6707,-36.77193 -59.7243,-22.30317 -30.6332,19.22572 16.1585,23.06707 -35.6837,-0.39684 -59.2187,-26.8025 -10.0084,-11.22915 -12.0269,-9.92442 -8.2478,5.33145 7.3656,29.73521 3.0244,56.65704 -6.7434,41.81807 -16.6365,-25.27398 -68.204,-58.60376 -57.2617,-37.01011 8.1076,15.99965 12.7457,44.45216 9.4116,57.7362 -0.8751,3.48689 -4.8165,4.91611 -4.8165,1.74655 0,-21.78271 -65.0863,-67.55447 -96.1967,-67.65007 -22.5261,-0.0692 -46.4499,-5.53333 -67.0705,-15.31863 -28.6535,-13.59728 -64.5597,31.93252 -65.7281,83.34466 -0.6537,28.76865 -0.5739,28.47175 -11.1195,41.33335 -12.2073,14.8881 -13.2528,21.0392 -18.2248,107.226 -1.1667,20.2238 -2.8136,22.4628 -6.7486,9.1745 z" id="path13022"/></g></svg>